<mxfile host="app.diagrams.net" modified="2023-11-24T14:40:54.969Z" agent="Mozilla/5.0 (Macintosh; Intel Mac OS X 10_15_7) AppleWebKit/605.1.15 (KHTML, like Gecko) Version/16.5 Safari/605.1.15" etag="NJUtcmSY_q86Ipv4QAQw" version="22.1.3" type="device">
  <diagram name="Página-1" id="XqUEl8WFbwALs_dcZVW6">
    <mxGraphModel dx="838" dy="687" grid="1" gridSize="10" guides="1" tooltips="1" connect="1" arrows="1" fold="1" page="1" pageScale="1" pageWidth="827" pageHeight="1169" math="0" shadow="0">
      <root>
        <mxCell id="0" />
        <mxCell id="1" parent="0" />
        <mxCell id="Z7X9YI-T-o30J6n3akIQ-3" value="Repartidor" style="whiteSpace=wrap;html=1;aspect=fixed;fillColor=#f8cecc;strokeColor=#b85450;" vertex="1" parent="1">
          <mxGeometry x="70" y="70" width="80" height="80" as="geometry" />
        </mxCell>
        <mxCell id="Z7X9YI-T-o30J6n3akIQ-4" value="Recepcionista" style="whiteSpace=wrap;html=1;aspect=fixed;fillColor=#ffe6cc;strokeColor=#d79b00;" vertex="1" parent="1">
          <mxGeometry x="190" y="70" width="80" height="80" as="geometry" />
        </mxCell>
        <mxCell id="Z7X9YI-T-o30J6n3akIQ-5" value="Pizzero" style="whiteSpace=wrap;html=1;aspect=fixed;fillColor=#d5e8d4;strokeColor=#82b366;" vertex="1" parent="1">
          <mxGeometry x="310" y="70" width="80" height="80" as="geometry" />
        </mxCell>
        <mxCell id="Z7X9YI-T-o30J6n3akIQ-6" value="Ayudantes&amp;nbsp;" style="whiteSpace=wrap;html=1;aspect=fixed;fillColor=#e1d5e7;strokeColor=#9673a6;" vertex="1" parent="1">
          <mxGeometry x="430" y="70" width="80" height="80" as="geometry" />
        </mxCell>
        <mxCell id="Z7X9YI-T-o30J6n3akIQ-7" value="Supervisores" style="whiteSpace=wrap;html=1;aspect=fixed;" vertex="1" parent="1">
          <mxGeometry x="550" y="70" width="80" height="80" as="geometry" />
        </mxCell>
        <mxCell id="Z7X9YI-T-o30J6n3akIQ-8" value="Intendencia" style="whiteSpace=wrap;html=1;aspect=fixed;fillColor=#fff2cc;strokeColor=#d6b656;" vertex="1" parent="1">
          <mxGeometry x="670" y="70" width="80" height="80" as="geometry" />
        </mxCell>
        <mxCell id="Z7X9YI-T-o30J6n3akIQ-9" value="Proveedores" style="whiteSpace=wrap;html=1;aspect=fixed;fillColor=#60a917;fontColor=#ffffff;strokeColor=#2D7600;" vertex="1" parent="1">
          <mxGeometry x="780" y="70" width="80" height="80" as="geometry" />
        </mxCell>
        <mxCell id="Z7X9YI-T-o30J6n3akIQ-11" value="Contador" style="whiteSpace=wrap;html=1;aspect=fixed;fillColor=#0050ef;fontColor=#ffffff;strokeColor=#001DBC;" vertex="1" parent="1">
          <mxGeometry x="900" y="70" width="80" height="80" as="geometry" />
        </mxCell>
        <mxCell id="Z7X9YI-T-o30J6n3akIQ-12" value="Mantenimiento" style="whiteSpace=wrap;html=1;aspect=fixed;fillColor=#e3c800;fontColor=#000000;strokeColor=#B09500;" vertex="1" parent="1">
          <mxGeometry x="1010" y="70" width="80" height="80" as="geometry" />
        </mxCell>
        <mxCell id="Z7X9YI-T-o30J6n3akIQ-13" value="Entregar pizza" style="whiteSpace=wrap;html=1;aspect=fixed;fillColor=#ffcccc;strokeColor=#36393d;" vertex="1" parent="1">
          <mxGeometry x="70" y="180" width="80" height="80" as="geometry" />
        </mxCell>
        <mxCell id="Z7X9YI-T-o30J6n3akIQ-14" value="Tomar pedido" style="whiteSpace=wrap;html=1;aspect=fixed;fillColor=#ffe6cc;strokeColor=#d79b00;" vertex="1" parent="1">
          <mxGeometry x="190" y="180" width="80" height="80" as="geometry" />
        </mxCell>
        <mxCell id="Z7X9YI-T-o30J6n3akIQ-15" value="Cobrar dinero" style="whiteSpace=wrap;html=1;aspect=fixed;fillColor=#ffe6cc;strokeColor=#d79b00;" vertex="1" parent="1">
          <mxGeometry x="190" y="280" width="80" height="80" as="geometry" />
        </mxCell>
        <mxCell id="Z7X9YI-T-o30J6n3akIQ-16" value="Decir promociones" style="whiteSpace=wrap;html=1;aspect=fixed;fillColor=#ffe6cc;strokeColor=#d79b00;" vertex="1" parent="1">
          <mxGeometry x="190" y="380" width="80" height="80" as="geometry" />
        </mxCell>
        <mxCell id="Z7X9YI-T-o30J6n3akIQ-17" value="Recibir llamadas" style="whiteSpace=wrap;html=1;aspect=fixed;fillColor=#ffe6cc;strokeColor=#d79b00;" vertex="1" parent="1">
          <mxGeometry x="190" y="480" width="80" height="80" as="geometry" />
        </mxCell>
        <mxCell id="Z7X9YI-T-o30J6n3akIQ-18" value="Cocinar pizza" style="whiteSpace=wrap;html=1;aspect=fixed;fillColor=#d5e8d4;strokeColor=#82b366;" vertex="1" parent="1">
          <mxGeometry x="310" y="180" width="80" height="80" as="geometry" />
        </mxCell>
        <mxCell id="Z7X9YI-T-o30J6n3akIQ-19" value="Verificar calidad" style="whiteSpace=wrap;html=1;aspect=fixed;" vertex="1" parent="1">
          <mxGeometry x="550" y="180" width="80" height="80" as="geometry" />
        </mxCell>
        <mxCell id="Z7X9YI-T-o30J6n3akIQ-20" value="Lavar loza" style="whiteSpace=wrap;html=1;aspect=fixed;fillColor=#fff2cc;strokeColor=#d6b656;" vertex="1" parent="1">
          <mxGeometry x="670" y="180" width="80" height="80" as="geometry" />
        </mxCell>
        <mxCell id="Z7X9YI-T-o30J6n3akIQ-21" value="Administrar ingresos" style="whiteSpace=wrap;html=1;aspect=fixed;fillColor=#0050ef;fontColor=#ffffff;strokeColor=#001DBC;" vertex="1" parent="1">
          <mxGeometry x="900" y="180" width="80" height="80" as="geometry" />
        </mxCell>
        <mxCell id="Z7X9YI-T-o30J6n3akIQ-22" value="Declarar impuestos" style="whiteSpace=wrap;html=1;aspect=fixed;fillColor=#0050ef;fontColor=#ffffff;strokeColor=#001DBC;" vertex="1" parent="1">
          <mxGeometry x="900" y="290" width="80" height="80" as="geometry" />
        </mxCell>
        <mxCell id="Z7X9YI-T-o30J6n3akIQ-23" value="Pagar sueldos" style="whiteSpace=wrap;html=1;aspect=fixed;fillColor=#0050ef;fontColor=#ffffff;strokeColor=#001DBC;" vertex="1" parent="1">
          <mxGeometry x="900" y="390" width="80" height="80" as="geometry" />
        </mxCell>
        <mxCell id="Z7X9YI-T-o30J6n3akIQ-24" value="Atención a clientes" style="whiteSpace=wrap;html=1;aspect=fixed;" vertex="1" parent="1">
          <mxGeometry x="550" y="280" width="80" height="80" as="geometry" />
        </mxCell>
        <mxCell id="Z7X9YI-T-o30J6n3akIQ-26" value="Limpiar baños" style="whiteSpace=wrap;html=1;aspect=fixed;fillColor=#fff2cc;strokeColor=#d6b656;" vertex="1" parent="1">
          <mxGeometry x="670" y="280" width="80" height="80" as="geometry" />
        </mxCell>
        <mxCell id="Z7X9YI-T-o30J6n3akIQ-27" value="Desinfectar cocina" style="whiteSpace=wrap;html=1;aspect=fixed;fillColor=#fff2cc;strokeColor=#d6b656;" vertex="1" parent="1">
          <mxGeometry x="670" y="390" width="80" height="80" as="geometry" />
        </mxCell>
        <mxCell id="Z7X9YI-T-o30J6n3akIQ-28" value="Mantenimientos de los hornos" style="whiteSpace=wrap;html=1;aspect=fixed;fillColor=#fff2cc;strokeColor=#d6b656;" vertex="1" parent="1">
          <mxGeometry x="670" y="505" width="80" height="80" as="geometry" />
        </mxCell>
        <mxCell id="Z7X9YI-T-o30J6n3akIQ-29" value="Tirar bassura" style="whiteSpace=wrap;html=1;aspect=fixed;fillColor=#fff2cc;strokeColor=#d6b656;" vertex="1" parent="1">
          <mxGeometry x="670" y="600" width="80" height="80" as="geometry" />
        </mxCell>
        <mxCell id="Z7X9YI-T-o30J6n3akIQ-30" value="Supervisar personal" style="whiteSpace=wrap;html=1;aspect=fixed;" vertex="1" parent="1">
          <mxGeometry x="550" y="380" width="80" height="80" as="geometry" />
        </mxCell>
        <mxCell id="Z7X9YI-T-o30J6n3akIQ-31" value="Cortar pizza" style="whiteSpace=wrap;html=1;aspect=fixed;fillColor=#d5e8d4;strokeColor=#82b366;" vertex="1" parent="1">
          <mxGeometry x="310" y="280" width="80" height="80" as="geometry" />
        </mxCell>
        <mxCell id="Z7X9YI-T-o30J6n3akIQ-32" value="Empacar pizza" style="whiteSpace=wrap;html=1;aspect=fixed;fillColor=#d5e8d4;strokeColor=#82b366;" vertex="1" parent="1">
          <mxGeometry x="310" y="380" width="80" height="80" as="geometry" />
        </mxCell>
        <mxCell id="Z7X9YI-T-o30J6n3akIQ-33" value="Preparar ingredientes" style="whiteSpace=wrap;html=1;aspect=fixed;fillColor=#d5e8d4;strokeColor=#82b366;" vertex="1" parent="1">
          <mxGeometry x="310" y="480" width="80" height="80" as="geometry" />
        </mxCell>
        <mxCell id="Z7X9YI-T-o30J6n3akIQ-34" value="Conducir moto" style="whiteSpace=wrap;html=1;aspect=fixed;fillColor=#ffcccc;strokeColor=#36393d;" vertex="1" parent="1">
          <mxGeometry x="70" y="280" width="80" height="80" as="geometry" />
        </mxCell>
        <mxCell id="Z7X9YI-T-o30J6n3akIQ-35" value="Vender ingredientes" style="whiteSpace=wrap;html=1;aspect=fixed;fillColor=#60a917;fontColor=#ffffff;strokeColor=#2D7600;" vertex="1" parent="1">
          <mxGeometry x="780" y="180" width="80" height="80" as="geometry" />
        </mxCell>
        <mxCell id="Z7X9YI-T-o30J6n3akIQ-36" value="Entregar ingredientes" style="whiteSpace=wrap;html=1;aspect=fixed;fillColor=#60a917;fontColor=#ffffff;strokeColor=#2D7600;" vertex="1" parent="1">
          <mxGeometry x="780" y="290" width="80" height="80" as="geometry" />
        </mxCell>
        <mxCell id="Z7X9YI-T-o30J6n3akIQ-38" value="Administrar inventario" style="whiteSpace=wrap;html=1;aspect=fixed;fillColor=#e1d5e7;strokeColor=#9673a6;" vertex="1" parent="1">
          <mxGeometry x="430" y="180" width="80" height="80" as="geometry" />
        </mxCell>
        <mxCell id="Z7X9YI-T-o30J6n3akIQ-42" value="Checar el sistema eléctrico" style="whiteSpace=wrap;html=1;aspect=fixed;fillColor=#e3c800;fontColor=#000000;strokeColor=#B09500;" vertex="1" parent="1">
          <mxGeometry x="1010" y="180" width="80" height="80" as="geometry" />
        </mxCell>
        <mxCell id="Z7X9YI-T-o30J6n3akIQ-43" value="Supervisar el agua" style="whiteSpace=wrap;html=1;aspect=fixed;fillColor=#e3c800;fontColor=#000000;strokeColor=#B09500;" vertex="1" parent="1">
          <mxGeometry x="1010" y="290" width="80" height="80" as="geometry" />
        </mxCell>
        <mxCell id="Z7X9YI-T-o30J6n3akIQ-44" value="Administrar inventario" style="whiteSpace=wrap;html=1;aspect=fixed;fillColor=#e3c800;fontColor=#000000;strokeColor=#B09500;" vertex="1" parent="1">
          <mxGeometry x="1010" y="390" width="80" height="80" as="geometry" />
        </mxCell>
        <mxCell id="Z7X9YI-T-o30J6n3akIQ-45" value="Mantener moto" style="whiteSpace=wrap;html=1;aspect=fixed;fillColor=#ffcccc;strokeColor=#36393d;" vertex="1" parent="1">
          <mxGeometry x="70" y="380" width="80" height="80" as="geometry" />
        </mxCell>
        <mxCell id="Z7X9YI-T-o30J6n3akIQ-46" value="Ayudar personal" style="whiteSpace=wrap;html=1;aspect=fixed;fillColor=#e1d5e7;strokeColor=#9673a6;" vertex="1" parent="1">
          <mxGeometry x="430" y="280" width="80" height="80" as="geometry" />
        </mxCell>
        <mxCell id="Z7X9YI-T-o30J6n3akIQ-47" value="Inventario&amp;nbsp;&lt;br&gt;Materias primas&amp;nbsp;&lt;br&gt;Costos" style="whiteSpace=wrap;html=1;aspect=fixed;fillColor=#e3c800;fontColor=#000000;strokeColor=#B09500;" vertex="1" parent="1">
          <mxGeometry x="1010" y="490" width="80" height="80" as="geometry" />
        </mxCell>
        <mxCell id="Z7X9YI-T-o30J6n3akIQ-48" value="Tomar pedidos por pagina web" style="whiteSpace=wrap;html=1;aspect=fixed;fillColor=#ffe6cc;strokeColor=#d79b00;" vertex="1" parent="1">
          <mxGeometry x="190" y="580" width="80" height="80" as="geometry" />
        </mxCell>
      </root>
    </mxGraphModel>
  </diagram>
</mxfile>
